Coordinates
version=1
nRows=6
nColumns=34
inDegrees=yes

Units are S.I. units (second, meters, Newtons, ...)
Angles are in degrees.

endheader
time	pelvis_tilt	pelvis_list	pelvis_rotation	pelvis_tx	pelvis_ty	pelvis_tz	hip_flexion_r	hip_adduction_r	hip_rotation_r	knee_angle_r	ankle_angle_r	subtalar_angle_r	mtp_angle_r	hip_flexion_l	hip_adduction_l	hip_rotation_l	knee_angle_l	socket_flexion	socket_adduction	socket_rotation	socket_tx	socket_ty	socket_tz	pros_ankle_rx	pros_ankle_ry	pros_ankle_rz	pros_ankle_tx	pros_ankle_ty	pros_ankle_tz	foot_flex	lumbar_extension	lumbar_bending	lumbar_rotation
      0.60416667	     -2.31833230	     -3.35085732	      6.60353651	      0.04751119	      1.01958082	      0.32384670	     21.81806256	      2.99288167	     -8.59739173	      3.50954977	     13.27520325	      8.27317905	      4.00851730	     -9.23052687	     -1.91416932	      8.56503938	    -18.82448731	      0.00000000	      0.00000000	      0.00000000	      0.00000000	      0.00585148	      0.00000000	      0.00000000	      0.00000000	      0.00000000	      0.00000000	      0.00000000	      0.00000000	     13.29152031	    -18.13852215	      0.04778238	    -12.21930610
      0.60833333	     -2.28917792	     -3.36870756	      6.76487410	      0.05368598	      1.01866646	      0.32383226	     21.91789219	      2.98114360	     -8.29178086	      3.08300626	     12.94983651	      8.32176726	      4.11214952	     -9.35489313	     -1.98883954	      8.68408473	    -19.27498586	      0.00000000	      0.00000000	      0.00000000	      0.00000000	      0.00622467	      0.00000000	      0.00000000	      0.00000000	      0.00000000	      0.00000000	      0.00000000	      0.00000000	     13.36792687	    -18.08640889	      0.23225568	    -12.23908595
      0.61250000	     -2.42932496	     -3.42535321	      6.95340913	      0.05992926	      1.01745520	      0.32380308	     22.24929803	      2.96108480	     -8.16550420	      2.60520958	     11.87848543	      8.11651152	      8.39125186	     -9.23393033	     -2.09027760	      8.80214341	    -19.83334731	      0.00000000	      0.00000000	      0.00000000	      0.00000000	      0.00650800	      0.00000000	      0.00000000	      0.00000000	      0.00000000	      0.00000000	      0.00000000	      0.00000000	     13.38517307	    -17.89458123	      0.41028214	    -12.43441180
      0.61666667	     -2.36142571	     -3.47888901	      7.07976342	      0.06613056	      1.01667737	      0.32381559	     22.35388012	      2.99601168	     -7.87439930	      2.01675492	     11.46003620	      8.16213083	      8.40794276	     -9.34581291	     -2.19601067	      8.85548165	    -20.38066637	      0.00000000	      0.00000000	      0.00000000	      0.00000000	      0.00693879	      0.00000000	      0.00000000	      0.00000000	      0.00000000	      0.00000000	      0.00000000	      0.00000000	     13.45026645	    -17.91420139	      0.63133827	    -12.40035968
      0.62083333	     -2.31115076	     -3.57499886	      7.18035864	      0.07229745	      1.01585716	      0.32391664	     22.54536655	      3.07977106	     -7.64854874	      1.28914207	     10.90533225	      8.14256451	      8.48042034	     -9.39625119	     -2.34611576	      8.84684200	    -20.99376409	      0.00000000	      0.00000000	      0.00000000	      0.00000000	      0.00728879	      0.00000000	      0.00000000	      0.00000000	      0.00000000	      0.00000000	      0.00000000	      0.00000000	     13.44270690	    -17.98562800	      0.84203854	    -12.35508681
      0.62500000	     -2.28908735	     -3.68244136	      7.26725020	      0.07847423	      1.01503332	      0.32400350	     22.79745696	      3.16836303	     -7.44181760	      0.47527183	     10.29346715	      8.06563729	      8.68286793	     -9.39146576	     -2.49758277	      8.82193212	    -21.64964593	      0.00000000	      0.00000000	      0.00000000	      0.00000000	      0.00764505	      0.00000000	      0.00000000	      0.00000000	      0.00000000	      0.00000000	      0.00000000	      0.00000000	     13.42860944	    -17.99135418	      1.06573896	    -12.26495746
